<?xml version="1.0" encoding="UTF-8" standalone="no"?>
<svg width="863px" height="174px" viewBox="0 0 863 174" version="1.1" xmlns="http://www.w3.org/2000/svg" xmlns:xlink="http://www.w3.org/1999/xlink" xmlns:sketch="http://www.bohemiancoding.com/sketch/ns">
    <!-- Generator: Sketch 3.3.1 (12002) - http://www.bohemiancoding.com/sketch -->
    <title>House Beautiful</title>
    <desc>Created with Sketch.</desc>
    <defs></defs>
    <g id="Page-1" stroke="none" stroke-width="1" fill="none" fill-rule="evenodd" sketch:type="MSPage">
        <path d="M71.5927792,9.63629032 L51.9578182,9.63629032 L51.9578182,86.9721774 L19.8734026,86.9721774 L19.8734026,9.63629032 L0,9.63629032 L0,170.814113 L19.8734026,170.814113 L19.8734026,98.053629 L51.9578182,98.053629 L51.9578182,170.814113 L71.5927792,170.814113 L71.5927792,9.63629032 L71.5927792,9.63629032 Z M101.999688,113.232056 C101.999688,71.0711694 106.788156,60.2296371 115.646961,60.2296371 C124.985455,60.2296371 129.534078,72.275 129.534078,112.990726 C129.534078,155.151613 124.74561,165.995968 115.886805,165.995968 C106.30987,165.995968 101.999688,153.947782 101.999688,113.232056 L101.999688,113.232056 L101.999688,113.232056 Z M81.4081558,112.990726 C81.4081558,155.392944 96.7315325,173.463105 115.886805,173.463105 C134.323948,173.463105 150.12561,156.356855 150.12561,112.990726 C150.12561,71.0711694 135.520364,53.0024194 115.886805,53.0024194 C95.5351169,53.0024194 81.4081558,71.5524194 81.4081558,112.990726 L81.4081558,112.990726 L81.4081558,112.990726 Z M214.771325,171.776613 C219.561195,171.776613 224.349662,169.60746 226.264208,167.681048 L226.264208,159.971169 C221.954026,162.380242 218.603221,161.175 218.603221,156.116935 L218.603221,55.4100806 L199.926234,55.4100806 L199.926234,156.116935 C197.053714,160.935081 192.503688,163.826815 187.715221,163.826815 C182.686909,163.826815 178.616571,160.935081 178.616571,152.021371 L178.616571,55.4100806 L159.940987,55.4100806 L159.940987,150.57621 C159.940987,163.826815 166.644,173.463105 181.250649,173.463105 C189.631169,173.463105 197.532,169.84879 202.320468,162.861492 C204.236416,169.84879 209.743013,171.776613 214.771325,171.776613 L214.771325,171.776613 L214.771325,171.776613 Z M283.247532,72.275 C283.247532,63.8439516 276.304675,53.0024194 257.389247,53.0024194 C237.276,53.0024194 227.937506,65.2891129 227.937506,79.7435484 C227.937506,109.379234 266.726338,127.446573 266.726338,151.53871 C266.726338,162.620161 260.261766,166.475806 252.839221,166.475806 C248.529039,166.475806 245.656519,165.995968 243.262286,164.547984 C248.529039,163.344153 251.642805,159.008669 251.642805,153.947782 C251.642805,147.683065 246.134805,143.10625 240.388364,143.10625 C234.402078,143.10625 229.61361,147.683065 229.61361,155.151613 C229.61361,165.030645 238.233974,173.463105 254.515325,173.463105 C272.952468,173.463105 285.403325,163.104234 285.403325,147.924395 C285.403325,124.796169 259.543636,105.763508 249.247169,87.9360887 C246.613091,83.3578629 245.176831,78.541129 245.176831,74.2028226 C245.176831,66.2530242 250.205143,60.4709677 259.303792,60.4709677 C262.177714,60.4709677 264.811792,61.1921371 266.966182,62.397379 C262.656,64.083871 260.261766,67.9395161 260.261766,72.5163306 C260.261766,79.2622984 266.008208,83.8391129 271.754649,83.8391129 C277.740935,83.8391129 283.247532,78.541129 283.247532,72.275 L283.247532,72.275 L283.247532,72.275 Z M327.782805,162.861492 C317.966026,162.861492 310.543481,154.430444 308.867377,126.002823 C327.782805,122.628427 346.698234,105.763508 346.938078,82.8766129 C347.177922,72.0350806 344.304,53.0024194 323.474026,53.0024194 C301.444831,53.0024194 288.037403,76.3705645 288.037403,113.474798 C288.037403,155.392944 304.078909,173.463105 323.474026,173.463105 C333.289403,173.463105 341.909766,169.60746 346.938078,161.417742 L341.191636,156.116935 C337.839429,160.695161 334.008935,162.861492 327.782805,162.861492 L327.782805,162.861492 L327.782805,162.861492 Z M308.628935,111.545565 L308.628935,101.429435 C308.628935,68.9020161 313.895688,61.1921371 320.36026,61.1921371 C324.670442,61.1921371 328.500935,67.4568548 328.500935,83.1165323 C328.500935,100.462702 322.754494,114.437298 308.628935,118.051613 L308.628935,111.545565 L308.628935,111.545565 Z M428.583273,126.002823 C428.583273,103.595766 418.049766,91.7903226 403.922805,86.9721774 C415.177247,81.9112903 425.472312,70.3485887 425.472312,50.1106855 C425.472312,22.1643145 411.345351,9.63629032 391.232104,9.63629032 L357.951273,9.63629032 L357.951273,170.814113 L390.275532,170.814113 C413.261299,170.814113 428.583273,157.562097 428.583273,126.002823 L428.583273,126.002823 L428.583273,126.002823 Z M407.513455,126.482661 C407.513455,154.911694 399.134338,160.935081 385.725506,160.935081 L377.824675,160.935081 L377.824675,92.0330645 L384.529091,92.0330645 C398.654649,92.0330645 407.513455,98.2949597 407.513455,126.482661 L407.513455,126.482661 L407.513455,126.482661 Z M404.640935,50.5933468 C404.640935,76.1292339 396.021974,81.190121 384.767532,81.190121 L377.824675,81.190121 L377.824675,19.2725806 L385.485662,19.2725806 C397.21839,19.2725806 404.640935,24.5733871 404.640935,50.5933468 L404.640935,50.5933468 L404.640935,50.5933468 Z M475.033091,162.861492 C465.219117,162.861492 457.795169,154.430444 456.117662,126.002823 C475.033091,122.628427 493.949922,105.763508 494.191169,82.8766129 C494.42961,72.0350806 491.555688,53.0024194 470.724312,53.0024194 C448.696519,53.0024194 435.290494,76.3705645 435.290494,113.474798 C435.290494,155.392944 451.332,173.463105 470.724312,173.463105 C480.542494,173.463105 489.161455,169.60746 494.191169,161.417742 L488.443325,156.116935 C485.091117,160.695161 481.260623,162.861492 475.033091,162.861492 L475.033091,162.861492 L475.033091,162.861492 Z M455.879221,111.545565 L455.879221,101.429435 C455.879221,68.9020161 461.144571,61.1921371 467.611948,61.1921371 C471.92213,61.1921371 475.751221,67.4568548 475.751221,83.1165323 C475.751221,100.462702 470.007584,114.437298 455.879221,118.051613 L455.879221,111.545565 L455.879221,111.545565 Z M563.625351,167.681048 L563.625351,159.971169 C559.315169,162.380242 555.962961,161.175 555.962961,156.116935 L555.962961,86.0082661 C555.962961,62.878629 547.102753,53.0024194 527.948883,53.0024194 C508.795013,53.0024194 499.456519,63.3627016 499.456519,73.9614919 C499.456519,80.9487903 504.724675,85.5256048 510.948,85.5256048 C516.457403,85.5256048 521.725558,80.9487903 521.725558,74.6854839 C521.725558,69.6260081 518.133506,65.2891129 513.342234,64.083871 C515.739273,62.397379 518.851636,61.1921371 523.401662,61.1921371 C531.061247,61.1921371 537.287377,63.8439516 537.287377,79.7435484 L537.287377,98.053629 C513.103792,103.595766 495.623221,114.918548 495.623221,142.142339 C495.623221,165.513306 508.795013,173.463105 519.806805,173.463105 C527.707636,173.463105 535.131584,170.33004 539.920052,163.826815 C542.075844,170.08871 547.341195,171.776613 552.132468,171.776613 C556.920935,171.776613 561.709403,169.60746 563.625351,167.681048 L563.625351,167.681048 Z M526.034338,164.305242 C520.286494,164.305242 514.540052,159.247177 514.540052,139.974597 C514.540052,118.051613 521.725558,110.100403 537.287377,105.282258 L537.04613,157.320766 C535.372831,160.695161 530.822805,164.305242 526.034338,164.305242 L526.034338,164.305242 L526.034338,164.305242 Z M623.722442,171.776613 C628.510909,171.776613 633.299377,169.60746 635.215325,167.681048 L635.215325,159.971169 C630.905143,162.380242 627.552935,161.175 627.552935,156.116935 L627.552935,55.4100806 L608.877351,55.4100806 L608.877351,156.116935 C606.003429,160.935081 601.453403,163.826815 596.664935,163.826815 C591.638026,163.826815 587.567688,160.935081 587.567688,152.021371 L587.567688,55.4100806 L568.890701,55.4100806 L568.890701,150.57621 C568.890701,163.826815 575.596519,173.463105 590.200364,173.463105 C598.582286,173.463105 606.483117,169.84879 611.271584,162.861492 C613.187532,169.84879 618.692727,171.776613 623.722442,171.776613 L623.722442,171.776613 L623.722442,171.776613 Z M671.128831,162.861492 C664.902701,162.861492 661.310649,159.489919 661.310649,148.407056 L661.310649,65.7703629 L680.464519,65.7703629 L680.464519,55.4100806 L661.310649,55.4100806 L661.310649,17.1048387 L642.636468,20.7191532 L642.636468,55.4100806 L633.296571,55.4100806 L633.296571,65.7703629 L642.636468,65.7703629 L642.636468,146.720565 C642.636468,166.475806 651.254026,173.463105 665.622234,173.463105 C674.002753,173.463105 679.989039,169.84879 683.576883,166.958468 L679.989039,159.489919 C677.594805,161.65625 674.241195,162.861492 671.128831,162.861492 L671.128831,162.861492 L671.128831,162.861492 Z M704.886545,55.4100806 L686.212364,55.4100806 L686.212364,153.225202 C686.212364,167.922379 695.30961,171.776613 702.972,171.776613 C708.719844,171.776613 712.787377,169.60746 715.18161,167.681048 L715.18161,159.971169 C713.508312,160.935081 711.832208,161.175 710.393143,161.175 C707.282182,161.175 704.886545,158.765927 704.886545,154.190524 L704.886545,55.4100806 L704.886545,55.4100806 Z M708.478597,25.2959677 C708.478597,18.3100806 702.493714,12.5266129 695.548052,12.5266129 C688.606597,12.5266129 682.620312,18.3100806 682.620312,25.2959677 C682.620312,32.0419355 688.606597,38.0639113 695.548052,38.0639113 C702.493714,38.0639113 708.478597,32.0419355 708.478597,25.2959677 L708.478597,25.2959677 L708.478597,25.2959677 Z M737.927532,30.8366935 C737.927532,19.03125 741.519584,7.46854839 752.054494,7.46854839 C752.772623,7.46854839 753.490753,7.70846774 754.448727,7.94979839 C750.619636,9.63629032 748.705091,13.2506048 748.705091,17.3447581 C748.705091,23.8508065 754.211688,28.427621 759.955325,28.427621 C765.94161,28.427621 771.209766,23.3681452 771.209766,17.1048387 C771.209766,7.94979839 763.788623,0 750.381195,0 C731.704208,0 721.647584,14.9370968 721.647584,38.3052419 L721.647584,55.4100806 L710.872831,55.4100806 L710.872831,65.7703629 L721.647584,65.7703629 L721.647584,170.814113 L740.321766,170.814113 L740.321766,65.7703629 L754.687169,65.7703629 L754.687169,55.4100806 L739.605039,55.4100806 C739.366597,48.6655242 737.927532,39.5104839 737.927532,30.8366935 L737.927532,30.8366935 L737.927532,30.8366935 Z M815.265351,171.776613 C820.056623,171.776613 824.845091,169.60746 826.759636,167.681048 L826.759636,159.971169 C822.450857,162.380242 819.097247,161.175 819.097247,156.116935 L819.097247,55.4100806 L800.423065,55.4100806 L800.423065,156.116935 C797.549143,160.935081 792.999117,163.826815 788.210649,163.826815 C783.180935,163.826815 779.112,160.935081 779.112,152.021371 L779.112,55.4100806 L760.435013,55.4100806 L760.435013,150.57621 C760.435013,163.826815 767.138026,173.463105 781.744675,173.463105 C790.125195,173.463105 798.026026,169.84879 802.817299,162.861492 C804.731844,169.84879 810.238442,171.776613 815.265351,171.776613 L815.265351,171.776613 L815.265351,171.776613 Z M852.135429,7.22721774 L833.22,10.8415323 L833.22,153.225202 C833.22,167.922379 842.558494,171.776613 850.220883,171.776613 C855.964519,171.776613 860.03626,169.60746 862.433299,167.681048 L862.433299,159.971169 C860.755792,160.935081 859.079688,161.175 857.644831,161.175 C854.529662,161.175 852.135429,158.765927 852.135429,154.190524 L852.135429,7.22721774 L852.135429,7.22721774 Z" id="House-Beautiful" fill="#000000" sketch:type="MSShapeGroup"></path>
    </g>
</svg>